HIERARCHY
ROOT Hips
{
	OFFSET 0.000000 0.000000 0.000000
	CHANNELS 6 Xposition Yposition Zposition Zrotation Xrotation Yrotation
	JOINT Spine
	{
		OFFSET 0.000000 1.053067 0.000000
		CHANNELS 6 Xposition Yposition Zposition Zrotation Xrotation Yrotation
		JOINT Spine1
		{
			OFFSET 0.000000 2.382877 0.000001
			CHANNELS 6 Xposition Yposition Zposition Zrotation Xrotation Yrotation
			JOINT Neck
			{
				OFFSET 0.000000 2.639722 0.000001
				CHANNELS 6 Xposition Yposition Zposition Zrotation Xrotation Yrotation
				JOINT Head
				{
					OFFSET 0.000000 1.990555 0.256846
					CHANNELS 6 Xposition Yposition Zposition Zrotation Xrotation Yrotation
					End Site
					{
						OFFSET 0.000000 2.568457 0.000001
					}
				}
			}
			JOINT LeftShoulder
			{
				OFFSET 0.512620 2.153831 -0.056020
				CHANNELS 6 Xposition Yposition Zposition Zrotation Xrotation Yrotation
				JOINT LeftArm
				{
					OFFSET 1.485729 0.000000 0.000000
					CHANNELS 6 Xposition Yposition Zposition Zrotation Xrotation Yrotation
					JOINT LeftForeArm
					{
						OFFSET 3.852898 0.000000 0.000000
						CHANNELS 6 Xposition Yposition Zposition Zrotation Xrotation Yrotation
						JOINT LeftHand
						{
							OFFSET 3.445927 0.000000 0.000000
							CHANNELS 6 Xposition Yposition Zposition Zrotation Xrotation Yrotation
							End Site
							{
								OFFSET 1.926343 0.000000 0.000000
							}
						}
					}
				}
			}
			JOINT RightShoulder
			{
				OFFSET -0.513668 2.153831 -0.056020
				CHANNELS 6 Xposition Yposition Zposition Zrotation Xrotation Yrotation
				JOINT RightArm
				{
					OFFSET -1.485729 0.000000 0.000000
					CHANNELS 6 Xposition Yposition Zposition Zrotation Xrotation Yrotation
					JOINT RightForeArm
					{
						OFFSET -3.852898 0.000000 0.000000
						CHANNELS 6 Xposition Yposition Zposition Zrotation Xrotation Yrotation
						JOINT RightHand
						{
							OFFSET -3.445927 0.000000 0.000000
							CHANNELS 6 Xposition Yposition Zposition Zrotation Xrotation Yrotation
							End Site
							{
								OFFSET -1.926343 0.000000 0.000000
							}
						}
					}
				}
			}
		}
	}
	JOINT LeftUpLeg
	{
		OFFSET 1.284228 0.000000 0.000000
		CHANNELS 6 Xposition Yposition Zposition Zrotation Xrotation Yrotation
		JOINT LeftLeg
		{
			OFFSET 0.000000 -6.684024 -0.000004
			CHANNELS 6 Xposition Yposition Zposition Zrotation Xrotation Yrotation
			JOINT LeftFoot
			{
				OFFSET 0.000000 -5.369456 -0.000004
				CHANNELS 6 Xposition Yposition Zposition Zrotation Xrotation Yrotation
				JOINT LeftToeBase
				{
					OFFSET 0.000000 -0.834749 1.926342
					CHANNELS 6 Xposition Yposition Zposition Zrotation Xrotation Yrotation
					End Site
					{
						OFFSET 0.000000 0.000000 0.513691
					}
				}
			}
		}
	}
	JOINT RightUpLeg
	{
		OFFSET -1.284228 0.000000 0.000000
		CHANNELS 6 Xposition Yposition Zposition Zrotation Xrotation Yrotation
		JOINT RightLeg
		{
			OFFSET 0.000000 -6.684024 -0.000004
			CHANNELS 6 Xposition Yposition Zposition Zrotation Xrotation Yrotation
			JOINT RightFoot
			{
				OFFSET 0.000000 -5.369456 -0.000004
				CHANNELS 6 Xposition Yposition Zposition Zrotation Xrotation Yrotation
				JOINT RightToeBase
				{
					OFFSET 0.000000 -0.834749 1.926342
					CHANNELS 6 Xposition Yposition Zposition Zrotation Xrotation Yrotation
					End Site
					{
						OFFSET 0.000000 0.000000 0.513691
					}
				}
			}
		}
	}
}
MOTION
Frames: 4
Frame Time: 0.041667
-0.342638 12.058095 9.891966 -3.545013 4.588138 85.036688 0.000001 1.053070 0.000000 1.220712 -9.668676 -1.115397 0.000001 2.382877 0.000001 7.200414 0.949785 -0.454021 -0.000001 2.639720 0.000001 -18.298618 19.258348 -15.593870 -0.000000 1.990554 0.256848 25.576110 -2.951759 -24.133632 0.512620 2.153824 -0.056020 12.709200 -5.724578 -8.679326 1.485731 0.000007 -0.000000 -4.533201 17.369507 -0.173255 3.852901 0.000003 -0.000000 12.605883 -17.841772 4.722568 3.445928 0.000001 0.000000 -43.500730 -12.405113 -15.323027 -0.513668 2.153826 -0.056020 -5.017644 12.432577 -5.097405 -1.485727 0.000000 -0.000001 45.064417 71.131072 30.558717 -3.852900 0.000001 -0.000001 -17.402905 -16.409338 9.911774 -3.445930 0.000002 -0.000002 11.487232 -14.219941 7.445055 1.284228 0.000001 0.000000 -6.985558 -6.191975 -0.282937 -0.000001 -6.684026 -0.000004 -4.005879 11.848454 1.771391 0.000001 -5.369462 -0.000003 8.544457 -8.955418 25.647867 0.000001 -0.834748 1.926341 -0.000002 0.000003 0.000000 -1.284228 0.000002 0.000000 -7.586826 -10.897598 -0.095565 0.000000 -6.684023 -0.000004 5.792294 24.871268 -7.381190 0.000000 -5.369459 -0.000004 -1.046894 -21.549841 -9.093862 -0.000002 -0.834749 1.926342 0.000000 0.000000 0.000004 
-0.338302 12.059242 9.900334 -3.537914 4.562997 85.018356 0.000003 1.053065 0.000000 1.222063 -9.703042 -1.125985 0.000000 2.382874 0.000001 7.219591 0.960986 -0.458480 0.000003 2.639727 0.000001 -18.338436 19.239719 -15.582809 -0.000001 1.990561 0.256846 25.651464 -2.972726 -24.134337 0.512620 2.153831 -0.056020 12.740243 -5.801195 -8.693882 1.485729 -0.000005 0.000001 -4.507082 17.100183 -0.067978 3.852897 0.000001 -0.000001 12.492367 -17.672310 4.661789 3.445927 0.000000 0.000003 -43.364359 -12.307937 -15.154165 -0.513666 2.153829 -0.056021 -5.031031 12.429393 -5.075894 -1.485727 -0.000002 -0.000000 45.186595 70.984606 30.393912 -3.852902 -0.000001 -0.000003 -17.318612 -16.310036 9.987191 -3.445929 0.000001 0.000001 11.402286 -14.113810 7.519284 1.284230 0.000001 0.000000 -6.925572 -6.155721 -0.329568 -0.000004 -6.684025 -0.000004 -4.026289 11.862877 1.795520 0.000000 -5.369456 -0.000003 8.533713 -8.978999 25.717588 -0.000000 -0.834749 1.926342 0.000001 0.000001 -0.000003 -1.284227 0.000002 0.000000 -7.566311 -10.801621 -0.248247 -0.000001 -6.684023 -0.000005 5.821311 24.726314 -7.422661 -0.000001 -5.369454 -0.000003 -1.015715 -21.523017 -8.895626 0.000002 -0.834748 1.926342 -0.000002 0.000001 0.000004 
-0.333973 12.060609 9.907457 -3.515049 4.554724 85.007209 -0.000001 1.053068 0.000000 1.205124 -9.689023 -1.142667 -0.000002 2.382878 0.000001 7.245348 0.928041 -0.461820 0.000001 2.639726 0.000001 -18.340134 19.256812 -15.594123 -0.000001 1.990561 0.256846 25.659684 -3.043200 -24.133910 0.512618 2.153836 -0.056021 12.762792 -5.763942 -8.636501 1.485730 0.000002 -0.000001 -4.456773 16.921579 -0.073682 3.852897 0.000001 -0.000001 12.439576 -17.568362 4.681778 3.445926 0.000010 0.000001 -43.342437 -12.222635 -15.108862 -0.513668 2.153832 -0.056020 -5.026734 12.448816 -5.076188 -1.485726 0.000002 -0.000000 45.216242 70.884523 30.305440 -3.852900 -0.000000 0.000000 -17.333721 -16.220808 10.012223 -3.445929 -0.000002 -0.000001 11.517443 -14.008418 7.547483 1.284227 -0.000001 -0.000000 -6.907376 -6.088305 -0.375626 -0.000001 -6.684027 -0.000004 -3.991620 11.811286 1.807805 0.000002 -5.369458 -0.000003 8.508286 -8.953845 25.750570 0.000001 -0.834749 1.926343 0.000001 0.000002 0.000003 -1.284229 0.000001 -0.000000 -7.572531 -10.699723 -0.504860 -0.000001 -6.684025 -0.000004 5.815924 24.615087 -7.368611 -0.000004 -5.369461 -0.000003 -0.974217 -21.514739 -8.743918 -0.000002 -0.834748 1.926342 -0.000001 0.000001 0.000003 
-0.330086 12.061942 9.915360 -3.513899 4.515809 85.012612 -0.000000 1.053066 0.000000 1.199433 -9.768330 -1.127737 0.000003 2.382876 0.000000 7.305864 0.962811 -0.459214 0.000001 2.639722 0.000001 -18.332841 19.387728 -15.623446 0.000000 1.990552 0.256845 25.675228 -3.205051 -24.146950 0.512622 2.153829 -0.056020 12.751758 -5.705447 -8.791968 1.485730 0.000002 0.000001 -4.462341 16.717619 0.081715 3.852896 0.000000 0.000000 12.415282 -17.449359 4.690004 3.445930 0.000001 0.000001 -43.262985 -12.147873 -15.019455 -0.513664 2.153827 -0.056020 -5.016481 12.457663 -5.063456 -1.485725 -0.000004 -0.000001 45.504889 70.678422 29.949348 -3.852900 0.000001 -0.000000 -17.298610 -16.216968 10.059531 -3.445929 0.000003 -0.000002 11.376837 -14.005644 7.588327 1.284229 -0.000000 0.000000 -6.846772 -6.045645 -0.369022 0.000002 -6.684026 -0.000004 -3.964002 11.751546 1.746446 -0.000000 -5.369458 -0.000004 8.536900 -8.915558 25.806984 0.000002 -0.834749 1.926342 -0.000001 -0.000000 -0.000001 -1.284229 0.000000 0.000000 -7.561088 -10.609091 -0.677389 0.000003 -6.684025 -0.000004 5.895583 24.476446 -7.406356 0.000001 -5.369455 -0.000003 -0.974057 -21.464315 -8.587607 -0.000003 -0.834749 1.926342 -0.000001 0.000002 0.000003 
